%TF.GenerationSoftware,KiCad,Pcbnew,9.0.4*%
%TF.CreationDate,2025-10-11T18:25:24-04:00*%
%TF.ProjectId,test1,74657374-312e-46b6-9963-61645f706362,rev?*%
%TF.SameCoordinates,Original*%
%TF.FileFunction,Drillmap*%
%TF.FilePolarity,Positive*%
%FSLAX45Y45*%
G04 Gerber Fmt 4.5, Leading zero omitted, Abs format (unit mm)*
G04 Created by KiCad (PCBNEW 9.0.4) date 2025-10-11 18:25:24*
%MOMM*%
%LPD*%
G01*
G04 APERTURE LIST*
%ADD10C,0.050000*%
%ADD11C,0.200000*%
G04 APERTURE END LIST*
D10*
X12550000Y-8600000D02*
X17750000Y-8600000D01*
X17750000Y-11500000D01*
X12550000Y-11500000D01*
X12550000Y-8600000D01*
D11*
X12808277Y-11813984D02*
X12808277Y-11613984D01*
X12808277Y-11613984D02*
X12855896Y-11613984D01*
X12855896Y-11613984D02*
X12884467Y-11623508D01*
X12884467Y-11623508D02*
X12903515Y-11642555D01*
X12903515Y-11642555D02*
X12913039Y-11661603D01*
X12913039Y-11661603D02*
X12922562Y-11699698D01*
X12922562Y-11699698D02*
X12922562Y-11728269D01*
X12922562Y-11728269D02*
X12913039Y-11766365D01*
X12913039Y-11766365D02*
X12903515Y-11785412D01*
X12903515Y-11785412D02*
X12884467Y-11804460D01*
X12884467Y-11804460D02*
X12855896Y-11813984D01*
X12855896Y-11813984D02*
X12808277Y-11813984D01*
X13008277Y-11813984D02*
X13008277Y-11680650D01*
X13008277Y-11718746D02*
X13017801Y-11699698D01*
X13017801Y-11699698D02*
X13027324Y-11690174D01*
X13027324Y-11690174D02*
X13046372Y-11680650D01*
X13046372Y-11680650D02*
X13065420Y-11680650D01*
X13132086Y-11813984D02*
X13132086Y-11680650D01*
X13132086Y-11613984D02*
X13122562Y-11623508D01*
X13122562Y-11623508D02*
X13132086Y-11633031D01*
X13132086Y-11633031D02*
X13141610Y-11623508D01*
X13141610Y-11623508D02*
X13132086Y-11613984D01*
X13132086Y-11613984D02*
X13132086Y-11633031D01*
X13255896Y-11813984D02*
X13236848Y-11804460D01*
X13236848Y-11804460D02*
X13227324Y-11785412D01*
X13227324Y-11785412D02*
X13227324Y-11613984D01*
X13360658Y-11813984D02*
X13341610Y-11804460D01*
X13341610Y-11804460D02*
X13332086Y-11785412D01*
X13332086Y-11785412D02*
X13332086Y-11613984D01*
X13589229Y-11813984D02*
X13589229Y-11613984D01*
X13589229Y-11613984D02*
X13655896Y-11756841D01*
X13655896Y-11756841D02*
X13722562Y-11613984D01*
X13722562Y-11613984D02*
X13722562Y-11813984D01*
X13903515Y-11813984D02*
X13903515Y-11709222D01*
X13903515Y-11709222D02*
X13893991Y-11690174D01*
X13893991Y-11690174D02*
X13874943Y-11680650D01*
X13874943Y-11680650D02*
X13836848Y-11680650D01*
X13836848Y-11680650D02*
X13817801Y-11690174D01*
X13903515Y-11804460D02*
X13884467Y-11813984D01*
X13884467Y-11813984D02*
X13836848Y-11813984D01*
X13836848Y-11813984D02*
X13817801Y-11804460D01*
X13817801Y-11804460D02*
X13808277Y-11785412D01*
X13808277Y-11785412D02*
X13808277Y-11766365D01*
X13808277Y-11766365D02*
X13817801Y-11747317D01*
X13817801Y-11747317D02*
X13836848Y-11737793D01*
X13836848Y-11737793D02*
X13884467Y-11737793D01*
X13884467Y-11737793D02*
X13903515Y-11728269D01*
X13998753Y-11680650D02*
X13998753Y-11880650D01*
X13998753Y-11690174D02*
X14017801Y-11680650D01*
X14017801Y-11680650D02*
X14055896Y-11680650D01*
X14055896Y-11680650D02*
X14074943Y-11690174D01*
X14074943Y-11690174D02*
X14084467Y-11699698D01*
X14084467Y-11699698D02*
X14093991Y-11718746D01*
X14093991Y-11718746D02*
X14093991Y-11775888D01*
X14093991Y-11775888D02*
X14084467Y-11794936D01*
X14084467Y-11794936D02*
X14074943Y-11804460D01*
X14074943Y-11804460D02*
X14055896Y-11813984D01*
X14055896Y-11813984D02*
X14017801Y-11813984D01*
X14017801Y-11813984D02*
X13998753Y-11804460D01*
X14179705Y-11794936D02*
X14189229Y-11804460D01*
X14189229Y-11804460D02*
X14179705Y-11813984D01*
X14179705Y-11813984D02*
X14170182Y-11804460D01*
X14170182Y-11804460D02*
X14179705Y-11794936D01*
X14179705Y-11794936D02*
X14179705Y-11813984D01*
X14179705Y-11690174D02*
X14189229Y-11699698D01*
X14189229Y-11699698D02*
X14179705Y-11709222D01*
X14179705Y-11709222D02*
X14170182Y-11699698D01*
X14170182Y-11699698D02*
X14179705Y-11690174D01*
X14179705Y-11690174D02*
X14179705Y-11709222D01*
M02*
